<svg xmlns="http://www.w3.org/2000/svg" viewBox="0 0 600 750" role="img"><defs><linearGradient id="sky" x2="0" y2="1"><stop stop-color="#25396e"/><stop offset=".6" stop-color="#86618a"/><stop offset="1" stop-color="#e59a85"/></linearGradient><linearGradient id="water" x2="0" y2="1"><stop stop-color="#3b3979"/><stop offset="1" stop-color="#081830"/></linearGradient><linearGradient id="glass" x2="1" y2="1"><stop stop-color="#203d66"/><stop offset="1" stop-color="#08172d"/></linearGradient><filter id="glow"><feGaussianBlur stdDeviation="15"/></filter></defs><rect width="600" height="750" fill="url(#sky)"/><circle cx="0" cy="0" r="1.6" fill="#fff" opacity="0.18"/><circle cx="186" cy="104" r="0.7" fill="#fff" opacity="0.3"/><circle cx="410" cy="222" r="0.7" fill="#fff" opacity="0.42"/><circle cx="72" cy="354" r="0.7" fill="#fff" opacity="0.54"/><circle cx="372" cy="0" r="0.7" fill="#fff" opacity="0.6599999999999999"/><circle cx="110" cy="160" r="0.7" fill="#fff" opacity="0.18"/><circle cx="486" cy="334" r="0.7" fill="#fff" opacity="0.3"/><circle cx="300" cy="22" r="0.7" fill="#fff" opacity="0.42"/><circle cx="152" cy="224" r="0.7" fill="#fff" opacity="0.54"/><circle cx="42" cy="440" r="1.6" fill="#fff" opacity="0.6599999999999999"/><circle cx="570" cy="170" r="0.7" fill="#fff" opacity="0.18"/><circle cx="536" cy="414" r="0.7" fill="#fff" opacity="0.3"/><circle cx="540" cy="172" r="0.7" fill="#fff" opacity="0.42"/><circle cx="582" cy="444" r="0.7" fill="#fff" opacity="0.54"/><circle cx="62" cy="230" r="0.7" fill="#fff" opacity="0.6599999999999999"/><circle cx="180" cy="30" r="0.7" fill="#fff" opacity="0.18"/><circle cx="336" cy="344" r="0.7" fill="#fff" opacity="0.3"/><circle cx="530" cy="172" r="0.7" fill="#fff" opacity="0.42"/><circle cx="162" cy="14" r="1.6" fill="#fff" opacity="0.54"/><circle cx="432" cy="370" r="0.7" fill="#fff" opacity="0.6599999999999999"/><circle cx="140" cy="240" r="0.7" fill="#fff" opacity="0.18"/><circle cx="486" cy="124" r="0.7" fill="#fff" opacity="0.3"/><circle cx="270" cy="22" r="0.7" fill="#fff" opacity="0.42"/><circle cx="92" cy="434" r="0.7" fill="#fff" opacity="0.54"/><circle cx="552" cy="360" r="0.7" fill="#fff" opacity="0.6599999999999999"/><circle cx="450" cy="300" r="0.7" fill="#fff" opacity="0.18"/><circle cx="386" cy="254" r="0.7" fill="#fff" opacity="0.3"/><circle cx="360" cy="222" r="1.6" fill="#fff" opacity="0.42"/><circle cx="372" cy="204" r="0.7" fill="#fff" opacity="0.54"/><circle cx="422" cy="200" r="0.7" fill="#fff" opacity="0.6599999999999999"/><circle cx="510" cy="210" r="0.7" fill="#fff" opacity="0.18"/><circle cx="36" cy="234" r="0.7" fill="#fff" opacity="0.3"/><circle cx="200" cy="272" r="0.7" fill="#fff" opacity="0.42"/><circle cx="402" cy="324" r="0.7" fill="#fff" opacity="0.54"/><circle cx="42" cy="390" r="0.7" fill="#fff" opacity="0.6599999999999999"/><circle cx="320" cy="470" r="0.7" fill="#fff" opacity="0.18"/><circle cx="36" cy="64" r="1.6" fill="#fff" opacity="0.3"/><circle cx="390" cy="172" r="0.7" fill="#fff" opacity="0.42"/><circle cx="182" cy="294" r="0.7" fill="#fff" opacity="0.54"/><circle cx="12" cy="430" r="0.7" fill="#fff" opacity="0.6599999999999999"/><circle cx="480" cy="80" r="0.7" fill="#fff" opacity="0.18"/><circle cx="386" cy="244" r="0.7" fill="#fff" opacity="0.3"/><circle cx="330" cy="422" r="0.7" fill="#fff" opacity="0.42"/><circle cx="312" cy="114" r="0.7" fill="#fff" opacity="0.54"/><circle cx="332" cy="320" r="0.7" fill="#fff" opacity="0.6599999999999999"/><circle cx="390" cy="40" r="1.6" fill="#fff" opacity="0.18"/><circle cx="486" cy="274" r="0.7" fill="#fff" opacity="0.3"/><circle cx="20" cy="22" r="0.7" fill="#fff" opacity="0.42"/><circle cx="192" cy="284" r="0.7" fill="#fff" opacity="0.54"/><circle cx="402" cy="60" r="0.7" fill="#fff" opacity="0.6599999999999999"/><circle cx="50" cy="350" r="0.7" fill="#fff" opacity="0.18"/><circle cx="336" cy="154" r="0.7" fill="#fff" opacity="0.3"/><circle cx="60" cy="472" r="0.7" fill="#fff" opacity="0.42"/><circle cx="422" cy="304" r="0.7" fill="#fff" opacity="0.54"/><circle cx="222" cy="150" r="1.6" fill="#fff" opacity="0.6599999999999999"/><circle cx="440" cy="390" r="145" fill="#efa5a8" opacity=".28"/><path d="M0 560 Q300 490 600 550V750H0" fill="#193458" opacity=".7"/><rect x="-10" y="616.25" width="30" height="33.75" fill="#1a2c58"/><rect x="-4" y="625.25" width="2" height="4" fill="#9db5dc" opacity="0.85"/><rect x="6" y="625.25" width="2" height="4" fill="#f8b893" opacity="0.5"/><rect x="-4" y="639.25" width="2" height="4" fill="#f8b893" opacity="0.5"/><rect x="6" y="639.25" width="2" height="4" fill="#f8b893" opacity="0.5"/><rect x="32" y="554.75" width="43" height="95.25" fill="#102449"/><rect x="38" y="563.75" width="2" height="4" fill="#f8b893" opacity="0.5"/><rect x="48" y="563.75" width="2" height="4" fill="#f8b893" opacity="0.5"/><rect x="58" y="563.75" width="2" height="4" fill="#f8b893" opacity="0.85"/><rect x="38" y="577.75" width="2" height="4" fill="#f8b893" opacity="0.5"/><rect x="48" y="577.75" width="2" height="4" fill="#f8b893" opacity="0.85"/><rect x="58" y="577.75" width="2" height="4" fill="#9db5dc" opacity="0.5"/><rect x="38" y="591.75" width="2" height="4" fill="#f8b893" opacity="0.85"/><rect x="48" y="591.75" width="2" height="4" fill="#9db5dc" opacity="0.5"/><rect x="58" y="591.75" width="2" height="4" fill="#f8b893" opacity="0.5"/><rect x="38" y="605.75" width="2" height="4" fill="#9db5dc" opacity="0.5"/><rect x="48" y="605.75" width="2" height="4" fill="#f8b893" opacity="0.5"/><rect x="58" y="605.75" width="2" height="4" fill="#f8b893" opacity="0.85"/><rect x="38" y="619.75" width="2" height="4" fill="#f8b893" opacity="0.5"/><rect x="48" y="619.75" width="2" height="4" fill="#f8b893" opacity="0.85"/><rect x="58" y="619.75" width="2" height="4" fill="#f8b893" opacity="0.5"/><rect x="38" y="633.75" width="2" height="4" fill="#f8b893" opacity="0.85"/><rect x="48" y="633.75" width="2" height="4" fill="#f8b893" opacity="0.5"/><rect x="58" y="633.75" width="2" height="4" fill="#9db5dc" opacity="0.5"/><rect x="74" y="604.25" width="32" height="45.75" fill="#102449"/><rect x="80" y="613.25" width="2" height="4" fill="#f8b893" opacity="0.5"/><rect x="90" y="613.25" width="2" height="4" fill="#f8b893" opacity="0.85"/><rect x="80" y="627.25" width="2" height="4" fill="#f8b893" opacity="0.85"/><rect x="90" y="627.25" width="2" height="4" fill="#9db5dc" opacity="0.5"/><rect x="80" y="641.25" width="2" height="4" fill="#9db5dc" opacity="0.5"/><rect x="90" y="641.25" width="2" height="4" fill="#f8b893" opacity="0.5"/><rect x="116" y="509.75" width="45" height="140.25" fill="#1a2c58"/><rect x="122" y="518.75" width="2" height="4" fill="#f8b893" opacity="0.85"/><rect x="132" y="518.75" width="2" height="4" fill="#9db5dc" opacity="0.5"/><rect x="142" y="518.75" width="2" height="4" fill="#f8b893" opacity="0.5"/><rect x="152" y="518.75" width="2" height="4" fill="#f8b893" opacity="0.85"/><rect x="122" y="532.75" width="2" height="4" fill="#9db5dc" opacity="0.5"/><rect x="132" y="532.75" width="2" height="4" fill="#f8b893" opacity="0.5"/><rect x="142" y="532.75" width="2" height="4" fill="#f8b893" opacity="0.85"/><rect x="152" y="532.75" width="2" height="4" fill="#f8b893" opacity="0.5"/><rect x="122" y="546.75" width="2" height="4" fill="#f8b893" opacity="0.5"/><rect x="132" y="546.75" width="2" height="4" fill="#f8b893" opacity="0.85"/><rect x="142" y="546.75" width="2" height="4" fill="#f8b893" opacity="0.5"/><rect x="152" y="546.75" width="2" height="4" fill="#9db5dc" opacity="0.5"/><rect x="122" y="560.75" width="2" height="4" fill="#f8b893" opacity="0.85"/><rect x="132" y="560.75" width="2" height="4" fill="#f8b893" opacity="0.5"/><rect x="142" y="560.75" width="2" height="4" fill="#9db5dc" opacity="0.5"/><rect x="152" y="560.75" width="2" height="4" fill="#f8b893" opacity="0.85"/><rect x="122" y="574.75" width="2" height="4" fill="#f8b893" opacity="0.5"/><rect x="132" y="574.75" width="2" height="4" fill="#9db5dc" opacity="0.5"/><rect x="142" y="574.75" width="2" height="4" fill="#f8b893" opacity="0.85"/><rect x="152" y="574.75" width="2" height="4" fill="#f8b893" opacity="0.5"/><rect x="122" y="588.75" width="2" height="4" fill="#9db5dc" opacity="0.5"/><rect x="132" y="588.75" width="2" height="4" fill="#f8b893" opacity="0.85"/><rect x="142" y="588.75" width="2" height="4" fill="#f8b893" opacity="0.5"/><rect x="152" y="588.75" width="2" height="4" fill="#f8b893" opacity="0.5"/><rect x="122" y="602.75" width="2" height="4" fill="#f8b893" opacity="0.85"/><rect x="132" y="602.75" width="2" height="4" fill="#f8b893" opacity="0.5"/><rect x="142" y="602.75" width="2" height="4" fill="#f8b893" opacity="0.5"/><rect x="152" y="602.75" width="2" height="4" fill="#9db5dc" opacity="0.85"/><rect x="122" y="616.75" width="2" height="4" fill="#f8b893" opacity="0.5"/><rect x="132" y="616.75" width="2" height="4" fill="#f8b893" opacity="0.5"/><rect x="142" y="616.75" width="2" height="4" fill="#9db5dc" opacity="0.85"/><rect x="152" y="616.75" width="2" height="4" fill="#f8b893" opacity="0.5"/><rect x="122" y="630.75" width="2" height="4" fill="#f8b893" opacity="0.5"/><rect x="132" y="630.75" width="2" height="4" fill="#9db5dc" opacity="0.85"/><rect x="142" y="630.75" width="2" height="4" fill="#f8b893" opacity="0.5"/><rect x="152" y="630.75" width="2" height="4" fill="#f8b893" opacity="0.5"/><rect x="158" y="526.25" width="34" height="123.75" fill="#102449"/><rect x="164" y="535.25" width="2" height="4" fill="#9db5dc" opacity="0.5"/><rect x="174" y="535.25" width="2" height="4" fill="#f8b893" opacity="0.5"/><rect x="184" y="535.25" width="2" height="4" fill="#f8b893" opacity="0.85"/><rect x="164" y="549.25" width="2" height="4" fill="#f8b893" opacity="0.5"/><rect x="174" y="549.25" width="2" height="4" fill="#f8b893" opacity="0.85"/><rect x="184" y="549.25" width="2" height="4" fill="#f8b893" opacity="0.5"/><rect x="164" y="563.25" width="2" height="4" fill="#f8b893" opacity="0.85"/><rect x="174" y="563.25" width="2" height="4" fill="#f8b893" opacity="0.5"/><rect x="184" y="563.25" width="2" height="4" fill="#9db5dc" opacity="0.5"/><rect x="164" y="577.25" width="2" height="4" fill="#f8b893" opacity="0.5"/><rect x="174" y="577.25" width="2" height="4" fill="#9db5dc" opacity="0.5"/><rect x="184" y="577.25" width="2" height="4" fill="#f8b893" opacity="0.85"/><rect x="164" y="591.25" width="2" height="4" fill="#9db5dc" opacity="0.5"/><rect x="174" y="591.25" width="2" height="4" fill="#f8b893" opacity="0.85"/><rect x="184" y="591.25" width="2" height="4" fill="#f8b893" opacity="0.5"/><rect x="164" y="605.25" width="2" height="4" fill="#f8b893" opacity="0.85"/><rect x="174" y="605.25" width="2" height="4" fill="#f8b893" opacity="0.5"/><rect x="184" y="605.25" width="2" height="4" fill="#f8b893" opacity="0.5"/><rect x="164" y="619.25" width="2" height="4" fill="#f8b893" opacity="0.5"/><rect x="174" y="619.25" width="2" height="4" fill="#f8b893" opacity="0.5"/><rect x="184" y="619.25" width="2" height="4" fill="#9db5dc" opacity="0.85"/><rect x="164" y="633.25" width="2" height="4" fill="#f8b893" opacity="0.5"/><rect x="174" y="633.25" width="2" height="4" fill="#9db5dc" opacity="0.85"/><rect x="184" y="633.25" width="2" height="4" fill="#f8b893" opacity="0.5"/><rect x="200" y="526.25" width="47" height="123.75" fill="#102449"/><rect x="206" y="535.25" width="2" height="4" fill="#f8b893" opacity="0.5"/><rect x="216" y="535.25" width="2" height="4" fill="#f8b893" opacity="0.85"/><rect x="226" y="535.25" width="2" height="4" fill="#f8b893" opacity="0.5"/><rect x="236" y="535.25" width="2" height="4" fill="#9db5dc" opacity="0.5"/><rect x="206" y="549.25" width="2" height="4" fill="#f8b893" opacity="0.85"/><rect x="216" y="549.25" width="2" height="4" fill="#f8b893" opacity="0.5"/><rect x="226" y="549.25" width="2" height="4" fill="#9db5dc" opacity="0.5"/><rect x="236" y="549.25" width="2" height="4" fill="#f8b893" opacity="0.85"/><rect x="206" y="563.25" width="2" height="4" fill="#f8b893" opacity="0.5"/><rect x="216" y="563.25" width="2" height="4" fill="#9db5dc" opacity="0.5"/><rect x="226" y="563.25" width="2" height="4" fill="#f8b893" opacity="0.85"/><rect x="236" y="563.25" width="2" height="4" fill="#f8b893" opacity="0.5"/><rect x="206" y="577.25" width="2" height="4" fill="#9db5dc" opacity="0.5"/><rect x="216" y="577.25" width="2" height="4" fill="#f8b893" opacity="0.85"/><rect x="226" y="577.25" width="2" height="4" fill="#f8b893" opacity="0.5"/><rect x="236" y="577.25" width="2" height="4" fill="#f8b893" opacity="0.5"/><rect x="206" y="591.25" width="2" height="4" fill="#f8b893" opacity="0.85"/><rect x="216" y="591.25" width="2" height="4" fill="#f8b893" opacity="0.5"/><rect x="226" y="591.25" width="2" height="4" fill="#f8b893" opacity="0.5"/><rect x="236" y="591.25" width="2" height="4" fill="#9db5dc" opacity="0.85"/><rect x="206" y="605.25" width="2" height="4" fill="#f8b893" opacity="0.5"/><rect x="216" y="605.25" width="2" height="4" fill="#f8b893" opacity="0.5"/><rect x="226" y="605.25" width="2" height="4" fill="#9db5dc" opacity="0.85"/><rect x="236" y="605.25" width="2" height="4" fill="#f8b893" opacity="0.5"/><rect x="206" y="619.25" width="2" height="4" fill="#f8b893" opacity="0.5"/><rect x="216" y="619.25" width="2" height="4" fill="#9db5dc" opacity="0.85"/><rect x="226" y="619.25" width="2" height="4" fill="#f8b893" opacity="0.5"/><rect x="236" y="619.25" width="2" height="4" fill="#f8b893" opacity="0.5"/><rect x="206" y="633.25" width="2" height="4" fill="#9db5dc" opacity="0.85"/><rect x="216" y="633.25" width="2" height="4" fill="#f8b893" opacity="0.5"/><rect x="226" y="633.25" width="2" height="4" fill="#f8b893" opacity="0.5"/><rect x="236" y="633.25" width="2" height="4" fill="#f8b893" opacity="0.85"/><rect x="242" y="509.75" width="36" height="140.25" fill="#1a2c58"/><rect x="248" y="518.75" width="2" height="4" fill="#f8b893" opacity="0.85"/><rect x="258" y="518.75" width="2" height="4" fill="#f8b893" opacity="0.5"/><rect x="268" y="518.75" width="2" height="4" fill="#9db5dc" opacity="0.5"/><rect x="248" y="532.75" width="2" height="4" fill="#f8b893" opacity="0.5"/><rect x="258" y="532.75" width="2" height="4" fill="#9db5dc" opacity="0.5"/><rect x="268" y="532.75" width="2" height="4" fill="#f8b893" opacity="0.85"/><rect x="248" y="546.75" width="2" height="4" fill="#9db5dc" opacity="0.5"/><rect x="258" y="546.75" width="2" height="4" fill="#f8b893" opacity="0.85"/><rect x="268" y="546.75" width="2" height="4" fill="#f8b893" opacity="0.5"/><rect x="248" y="560.75" width="2" height="4" fill="#f8b893" opacity="0.85"/><rect x="258" y="560.75" width="2" height="4" fill="#f8b893" opacity="0.5"/><rect x="268" y="560.75" width="2" height="4" fill="#f8b893" opacity="0.5"/><rect x="248" y="574.75" width="2" height="4" fill="#f8b893" opacity="0.5"/><rect x="258" y="574.75" width="2" height="4" fill="#f8b893" opacity="0.5"/><rect x="268" y="574.75" width="2" height="4" fill="#9db5dc" opacity="0.85"/><rect x="248" y="588.75" width="2" height="4" fill="#f8b893" opacity="0.5"/><rect x="258" y="588.75" width="2" height="4" fill="#9db5dc" opacity="0.85"/><rect x="268" y="588.75" width="2" height="4" fill="#f8b893" opacity="0.5"/><rect x="248" y="602.75" width="2" height="4" fill="#9db5dc" opacity="0.85"/><rect x="258" y="602.75" width="2" height="4" fill="#f8b893" opacity="0.5"/><rect x="268" y="602.75" width="2" height="4" fill="#f8b893" opacity="0.5"/><rect x="248" y="616.75" width="2" height="4" fill="#f8b893" opacity="0.5"/><rect x="258" y="616.75" width="2" height="4" fill="#f8b893" opacity="0.5"/><rect x="268" y="616.75" width="2" height="4" fill="#f8b893" opacity="0.85"/><rect x="248" y="630.75" width="2" height="4" fill="#f8b893" opacity="0.5"/><rect x="258" y="630.75" width="2" height="4" fill="#f8b893" opacity="0.85"/><rect x="268" y="630.75" width="2" height="4" fill="#9db5dc" opacity="0.5"/><rect x="284" y="604.25" width="49" height="45.75" fill="#102449"/><rect x="290" y="613.25" width="2" height="4" fill="#f8b893" opacity="0.5"/><rect x="300" y="613.25" width="2" height="4" fill="#9db5dc" opacity="0.5"/><rect x="310" y="613.25" width="2" height="4" fill="#f8b893" opacity="0.85"/><rect x="320" y="613.25" width="2" height="4" fill="#f8b893" opacity="0.5"/><rect x="290" y="627.25" width="2" height="4" fill="#9db5dc" opacity="0.5"/><rect x="300" y="627.25" width="2" height="4" fill="#f8b893" opacity="0.85"/><rect x="310" y="627.25" width="2" height="4" fill="#f8b893" opacity="0.5"/><rect x="320" y="627.25" width="2" height="4" fill="#f8b893" opacity="0.5"/><rect x="290" y="641.25" width="2" height="4" fill="#f8b893" opacity="0.85"/><rect x="300" y="641.25" width="2" height="4" fill="#f8b893" opacity="0.5"/><rect x="310" y="641.25" width="2" height="4" fill="#f8b893" opacity="0.5"/><rect x="320" y="641.25" width="2" height="4" fill="#9db5dc" opacity="0.85"/><rect x="326" y="554.75" width="38" height="95.25" fill="#102449"/><rect x="332" y="563.75" width="2" height="4" fill="#9db5dc" opacity="0.5"/><rect x="342" y="563.75" width="2" height="4" fill="#f8b893" opacity="0.85"/><rect x="352" y="563.75" width="2" height="4" fill="#f8b893" opacity="0.5"/><rect x="332" y="577.75" width="2" height="4" fill="#f8b893" opacity="0.85"/><rect x="342" y="577.75" width="2" height="4" fill="#f8b893" opacity="0.5"/><rect x="352" y="577.75" width="2" height="4" fill="#f8b893" opacity="0.5"/><rect x="332" y="591.75" width="2" height="4" fill="#f8b893" opacity="0.5"/><rect x="342" y="591.75" width="2" height="4" fill="#f8b893" opacity="0.5"/><rect x="352" y="591.75" width="2" height="4" fill="#9db5dc" opacity="0.85"/><rect x="332" y="605.75" width="2" height="4" fill="#f8b893" opacity="0.5"/><rect x="342" y="605.75" width="2" height="4" fill="#9db5dc" opacity="0.85"/><rect x="352" y="605.75" width="2" height="4" fill="#f8b893" opacity="0.5"/><rect x="332" y="619.75" width="2" height="4" fill="#9db5dc" opacity="0.85"/><rect x="342" y="619.75" width="2" height="4" fill="#f8b893" opacity="0.5"/><rect x="352" y="619.75" width="2" height="4" fill="#f8b893" opacity="0.5"/><rect x="332" y="633.75" width="2" height="4" fill="#f8b893" opacity="0.5"/><rect x="342" y="633.75" width="2" height="4" fill="#f8b893" opacity="0.5"/><rect x="352" y="633.75" width="2" height="4" fill="#f8b893" opacity="0.85"/><rect x="368" y="616.25" width="51" height="33.75" fill="#1a2c58"/><rect x="374" y="625.25" width="2" height="4" fill="#f8b893" opacity="0.85"/><rect x="384" y="625.25" width="2" height="4" fill="#f8b893" opacity="0.5"/><rect x="394" y="625.25" width="2" height="4" fill="#f8b893" opacity="0.5"/><rect x="404" y="625.25" width="2" height="4" fill="#9db5dc" opacity="0.85"/><rect x="374" y="639.25" width="2" height="4" fill="#f8b893" opacity="0.5"/><rect x="384" y="639.25" width="2" height="4" fill="#f8b893" opacity="0.5"/><rect x="394" y="639.25" width="2" height="4" fill="#9db5dc" opacity="0.85"/><rect x="404" y="639.25" width="2" height="4" fill="#f8b893" opacity="0.5"/><rect x="410" y="533.75" width="40" height="116.25" fill="#102449"/><rect x="416" y="542.75" width="2" height="4" fill="#f8b893" opacity="0.5"/><rect x="426" y="542.75" width="2" height="4" fill="#f8b893" opacity="0.5"/><rect x="436" y="542.75" width="2" height="4" fill="#9db5dc" opacity="0.85"/><rect x="416" y="556.75" width="2" height="4" fill="#f8b893" opacity="0.5"/><rect x="426" y="556.75" width="2" height="4" fill="#9db5dc" opacity="0.85"/><rect x="436" y="556.75" width="2" height="4" fill="#f8b893" opacity="0.5"/><rect x="416" y="570.75" width="2" height="4" fill="#9db5dc" opacity="0.85"/><rect x="426" y="570.75" width="2" height="4" fill="#f8b893" opacity="0.5"/><rect x="436" y="570.75" width="2" height="4" fill="#f8b893" opacity="0.5"/><rect x="416" y="584.75" width="2" height="4" fill="#f8b893" opacity="0.5"/><rect x="426" y="584.75" width="2" height="4" fill="#f8b893" opacity="0.5"/><rect x="436" y="584.75" width="2" height="4" fill="#f8b893" opacity="0.85"/><rect x="416" y="598.75" width="2" height="4" fill="#f8b893" opacity="0.5"/><rect x="426" y="598.75" width="2" height="4" fill="#f8b893" opacity="0.85"/><rect x="436" y="598.75" width="2" height="4" fill="#9db5dc" opacity="0.5"/><rect x="416" y="612.75" width="2" height="4" fill="#f8b893" opacity="0.85"/><rect x="426" y="612.75" width="2" height="4" fill="#9db5dc" opacity="0.5"/><rect x="436" y="612.75" width="2" height="4" fill="#f8b893" opacity="0.5"/><rect x="416" y="626.75" width="2" height="4" fill="#9db5dc" opacity="0.5"/><rect x="426" y="626.75" width="2" height="4" fill="#f8b893" opacity="0.5"/><rect x="436" y="626.75" width="2" height="4" fill="#f8b893" opacity="0.85"/><rect x="452" y="562.25" width="53" height="87.75" fill="#102449"/><rect x="458" y="571.25" width="2" height="4" fill="#f8b893" opacity="0.5"/><rect x="468" y="571.25" width="2" height="4" fill="#9db5dc" opacity="0.85"/><rect x="478" y="571.25" width="2" height="4" fill="#f8b893" opacity="0.5"/><rect x="488" y="571.25" width="2" height="4" fill="#f8b893" opacity="0.5"/><rect x="458" y="585.25" width="2" height="4" fill="#9db5dc" opacity="0.85"/><rect x="468" y="585.25" width="2" height="4" fill="#f8b893" opacity="0.5"/><rect x="478" y="585.25" width="2" height="4" fill="#f8b893" opacity="0.5"/><rect x="488" y="585.25" width="2" height="4" fill="#f8b893" opacity="0.85"/><rect x="458" y="599.25" width="2" height="4" fill="#f8b893" opacity="0.5"/><rect x="468" y="599.25" width="2" height="4" fill="#f8b893" opacity="0.5"/><rect x="478" y="599.25" width="2" height="4" fill="#f8b893" opacity="0.85"/><rect x="488" y="599.25" width="2" height="4" fill="#9db5dc" opacity="0.5"/><rect x="458" y="613.25" width="2" height="4" fill="#f8b893" opacity="0.5"/><rect x="468" y="613.25" width="2" height="4" fill="#f8b893" opacity="0.85"/><rect x="478" y="613.25" width="2" height="4" fill="#9db5dc" opacity="0.5"/><rect x="488" y="613.25" width="2" height="4" fill="#f8b893" opacity="0.5"/><rect x="458" y="627.25" width="2" height="4" fill="#f8b893" opacity="0.85"/><rect x="468" y="627.25" width="2" height="4" fill="#9db5dc" opacity="0.5"/><rect x="478" y="627.25" width="2" height="4" fill="#f8b893" opacity="0.5"/><rect x="488" y="627.25" width="2" height="4" fill="#f8b893" opacity="0.85"/><rect x="494" y="574.25" width="42" height="75.75" fill="#1a2c58"/><rect x="500" y="583.25" width="2" height="4" fill="#9db5dc" opacity="0.85"/><rect x="510" y="583.25" width="2" height="4" fill="#f8b893" opacity="0.5"/><rect x="520" y="583.25" width="2" height="4" fill="#f8b893" opacity="0.5"/><rect x="500" y="597.25" width="2" height="4" fill="#f8b893" opacity="0.5"/><rect x="510" y="597.25" width="2" height="4" fill="#f8b893" opacity="0.5"/><rect x="520" y="597.25" width="2" height="4" fill="#f8b893" opacity="0.85"/><rect x="500" y="611.25" width="2" height="4" fill="#f8b893" opacity="0.5"/><rect x="510" y="611.25" width="2" height="4" fill="#f8b893" opacity="0.85"/><rect x="520" y="611.25" width="2" height="4" fill="#9db5dc" opacity="0.5"/><rect x="500" y="625.25" width="2" height="4" fill="#f8b893" opacity="0.85"/><rect x="510" y="625.25" width="2" height="4" fill="#9db5dc" opacity="0.5"/><rect x="520" y="625.25" width="2" height="4" fill="#f8b893" opacity="0.5"/><rect x="500" y="639.25" width="2" height="4" fill="#9db5dc" opacity="0.5"/><rect x="510" y="639.25" width="2" height="4" fill="#f8b893" opacity="0.5"/><rect x="520" y="639.25" width="2" height="4" fill="#f8b893" opacity="0.85"/><rect x="536" y="569.75" width="31" height="80.25" fill="#102449"/><rect x="542" y="578.75" width="2" height="4" fill="#f8b893" opacity="0.5"/><rect x="552" y="578.75" width="2" height="4" fill="#f8b893" opacity="0.5"/><rect x="542" y="592.75" width="2" height="4" fill="#f8b893" opacity="0.5"/><rect x="552" y="592.75" width="2" height="4" fill="#f8b893" opacity="0.85"/><rect x="542" y="606.75" width="2" height="4" fill="#f8b893" opacity="0.85"/><rect x="552" y="606.75" width="2" height="4" fill="#9db5dc" opacity="0.5"/><rect x="542" y="620.75" width="2" height="4" fill="#9db5dc" opacity="0.5"/><rect x="552" y="620.75" width="2" height="4" fill="#f8b893" opacity="0.5"/><rect x="542" y="634.75" width="2" height="4" fill="#f8b893" opacity="0.5"/><rect x="552" y="634.75" width="2" height="4" fill="#f8b893" opacity="0.85"/><rect x="578" y="548.75" width="44" height="101.25" fill="#102449"/><rect x="584" y="557.75" width="2" height="4" fill="#f8b893" opacity="0.5"/><rect x="594" y="557.75" width="2" height="4" fill="#f8b893" opacity="0.85"/><rect x="604" y="557.75" width="2" height="4" fill="#9db5dc" opacity="0.5"/><rect x="614" y="557.75" width="2" height="4" fill="#f8b893" opacity="0.5"/><rect x="584" y="571.75" width="2" height="4" fill="#f8b893" opacity="0.85"/><rect x="594" y="571.75" width="2" height="4" fill="#9db5dc" opacity="0.5"/><rect x="604" y="571.75" width="2" height="4" fill="#f8b893" opacity="0.5"/><rect x="614" y="571.75" width="2" height="4" fill="#f8b893" opacity="0.85"/><rect x="584" y="585.75" width="2" height="4" fill="#9db5dc" opacity="0.5"/><rect x="594" y="585.75" width="2" height="4" fill="#f8b893" opacity="0.5"/><rect x="604" y="585.75" width="2" height="4" fill="#f8b893" opacity="0.85"/><rect x="614" y="585.75" width="2" height="4" fill="#f8b893" opacity="0.5"/><rect x="584" y="599.75" width="2" height="4" fill="#f8b893" opacity="0.5"/><rect x="594" y="599.75" width="2" height="4" fill="#f8b893" opacity="0.85"/><rect x="604" y="599.75" width="2" height="4" fill="#f8b893" opacity="0.5"/><rect x="614" y="599.75" width="2" height="4" fill="#9db5dc" opacity="0.5"/><rect x="584" y="613.75" width="2" height="4" fill="#f8b893" opacity="0.85"/><rect x="594" y="613.75" width="2" height="4" fill="#f8b893" opacity="0.5"/><rect x="604" y="613.75" width="2" height="4" fill="#9db5dc" opacity="0.5"/><rect x="614" y="613.75" width="2" height="4" fill="#f8b893" opacity="0.85"/><rect x="584" y="627.75" width="2" height="4" fill="#f8b893" opacity="0.5"/><rect x="594" y="627.75" width="2" height="4" fill="#9db5dc" opacity="0.5"/><rect x="604" y="627.75" width="2" height="4" fill="#f8b893" opacity="0.85"/><rect x="614" y="627.75" width="2" height="4" fill="#f8b893" opacity="0.5"/><path d="M0 680H600" stroke="#f9b9ac" opacity=".5"/></svg>